HIERARCHY
ROOT hip
{
	OFFSET 0.000000 0.000000 0.000000 
	CHANNELS 6 Xposition Yposition Zposition Xrotation Zrotation Yrotation
	JOINT abdomen
	{
		OFFSET 0.000000 3.402643 0.000000 
		CHANNELS 3 Xrotation Zrotation Yrotation
		JOINT chest
		{
			OFFSET 0.000000 8.438565 -0.680529 
			CHANNELS 3 Xrotation Zrotation Yrotation
			JOINT neck
			{
				OFFSET 0.000000 10.207942 -0.272212 
				CHANNELS 3 Xrotation Zrotation Yrotation
				JOINT head
				{
					OFFSET 0.000000 3.130431 0.000000 
					CHANNELS 3 Xrotation Zrotation Yrotation
					End Site
					{
						OFFSET 0.000000 3.130435 0.000000 
					}
				}
			}
			JOINT lCollar
			{
				OFFSET 3.470700 6.669187 -0.816635 
				CHANNELS 3 Yrotation Zrotation Xrotation
				JOINT lShldr
				{
					OFFSET 3.198488 0.000000 0.000000 
					CHANNELS 3 Zrotation Yrotation Xrotation
					JOINT lForeArm
					{
						OFFSET 10.139888 0.000000 0.000000 
						CHANNELS 3 Yrotation Zrotation Xrotation
						JOINT lHand
						{
							OFFSET 8.370511 0.000000 0.000000 
							CHANNELS 3 Zrotation Yrotation Xrotation
							End Site
							{
								OFFSET 4.083176 0.000000 0.000000 
							}
						}
					}
				}
			}
			JOINT rCollar
			{
				OFFSET -3.470700 6.669187 -0.816635 
				CHANNELS 3 Yrotation Zrotation Xrotation
				JOINT rShldr
				{
					OFFSET -3.198488 0.000000 0.000000 
					CHANNELS 3 Zrotation Yrotation Xrotation
					JOINT rForeArm
					{
						OFFSET -10.139888 0.000000 0.000000 
						CHANNELS 3 Yrotation Zrotation Xrotation
						JOINT rHand
						{
							OFFSET -8.370511 0.000000 0.000000 
							CHANNELS 3 Zrotation Yrotation Xrotation
							End Site
							{
								OFFSET -4.083176 0.000000 0.000000 
							}
						}
					}
				}
			}
		}
	}
	JOINT lThigh
	{
		OFFSET 5.308129 -1.633274 1.361059 
		CHANNELS 3 Xrotation Zrotation Yrotation
		JOINT lShin
		{
			OFFSET -2.041588 -20.007561 0.000000 
			CHANNELS 3 Xrotation Zrotation Yrotation
			JOINT lFoot
			{
				OFFSET 0.000000 -19.190928 -1.224953 
				CHANNELS 3 Xrotation Yrotation Zrotation
				End Site
				{
					OFFSET 0.000000 -2.449906 4.627600 
				}
			}
		}
	}
	JOINT rThigh
	{
		OFFSET -5.308129 -1.633274 1.361059 
		CHANNELS 3 Xrotation Zrotation Yrotation
		JOINT rShin
		{
			OFFSET 2.041588 -20.007561 0.000000 
			CHANNELS 3 Xrotation Zrotation Yrotation
			JOINT rFoot
			{
				OFFSET 0.000000 -19.190928 -1.224953 
				CHANNELS 3 Xrotation Yrotation Zrotation
				End Site
				{
					OFFSET 0.000000 -2.449906 4.627600 
				}
			}
		}
	}
}
MOTION
Frames: 13
Frame Time: 0.011111
35.397659 50.747009 -114.074875 13.742104 5.906657 -49.500591 29.819851 -2.363274 3.175586 -25.356411 5.903124 1.241430 -14.657248 -1.364993 3.543145 32.238464 8.445167 9.372452 6.655530 -7.385053 2.814211 -66.803284 -38.847420 14.433925 -52.288910 8.188586 9.082129 8.524705 12.647240 -52.620491 -7.245022 1.299557 2.988899 71.245682 26.464928 16.312931 63.684410 -9.453192 14.076871 -8.534408 -12.637552 60.638527 -22.992468 9.205826 8.815031 51.491920 -3.664134 -7.353483 -33.346413 10.252382 4.659611 -17.352449 -8.359088 -0.831836 59.427952 2.802907 8.075809 -16.794680 -6.633370 1.053343 
35.336357 50.747009 -113.764343 13.841194 6.067140 -49.353306 29.862431 -2.392656 2.872028 -25.523537 5.998283 1.148064 -14.678559 -1.270043 3.592478 32.278393 8.422396 9.488194 6.655530 -7.385053 2.814211 -66.681168 -38.944923 14.423398 -52.457058 8.222328 9.154056 8.524705 12.647240 -52.776741 -7.245022 1.299557 2.988899 71.254097 26.356249 16.583391 63.910046 -9.462042 14.194604 -8.534408 -12.637552 60.618999 -22.567226 8.866590 8.856928 51.050797 -3.702624 -7.295653 -33.298374 10.323728 4.672944 -18.150604 -8.592108 -0.944201 60.484222 2.685613 8.153501 -15.983476 -6.927044 1.104851 
35.257942 50.794930 -113.452232 13.909945 6.269573 -49.356731 29.881348 -2.465549 2.449020 -25.602671 6.235617 1.031578 -14.512118 -1.470168 3.743633 31.962482 8.520727 9.773068 6.655530 -7.385053 2.814211 -66.708237 -38.913452 13.950102 -52.740681 8.276093 9.269146 8.524705 12.647240 -53.372452 -7.245022 1.299557 2.988899 71.042229 26.276724 17.127319 64.153931 -9.460507 14.297203 -8.534408 -12.637552 60.511578 -22.184217 8.425810 8.635536 50.667854 -3.724374 -7.273351 -33.222187 10.505133 4.719621 -19.001337 -8.807703 -0.928329 61.558437 2.558740 8.263756 -14.954041 -7.506586 1.140688 
35.160549 50.879257 -113.105911 13.842098 6.407959 -49.602692 30.088499 -2.949222 2.581475 -25.504154 6.153597 1.137089 -14.889889 -1.258182 3.637834 31.931456 8.589777 9.597551 6.655530 -7.385053 2.814211 -66.345055 -39.480339 14.691049 -52.813950 8.288870 9.301623 8.524705 12.647240 -52.190807 -7.245022 1.299557 2.988899 71.365837 26.356226 17.049948 64.409508 -9.461893 14.419562 -8.534408 -12.637552 60.365097 -21.506121 7.808584 8.219334 50.216194 -3.780753 -7.212295 -32.562271 11.067706 4.779801 -19.664242 -8.992596 -0.659955 62.515957 2.451340 8.335324 -14.054871 -8.015978 1.193384 
35.082130 50.786217 -112.803131 13.705045 6.534816 -49.797226 30.046289 -2.411719 0.989143 -25.527254 7.246827 0.612097 -14.069041 -2.391764 4.520030 31.480581 8.208208 11.071026 6.655530 -7.385053 2.814211 -67.227898 -38.776043 12.759341 -53.181831 8.355726 9.448828 8.524705 12.647240 -51.975964 -7.245022 1.299557 2.988899 69.893494 26.366701 19.417320 64.485580 -9.465566 14.455770 -8.534408 -12.637552 60.531109 -20.982265 7.732019 9.259843 50.069359 -3.773226 -7.206268 -33.406422 10.408165 4.751884 -20.512739 -9.236448 -0.410122 63.697975 2.313519 8.414315 -13.801125 -8.610332 1.128224 
34.999672 50.802399 -112.508461 13.821384 6.797980 -49.573490 30.017834 -2.551435 0.664377 -25.576975 7.368885 0.535583 -14.207896 -2.275062 4.471800 31.562233 8.073068 10.943154 6.655530 -7.385053 2.814211 -67.043114 -39.113838 12.912672 -53.276775 8.374348 9.490864 8.524705 12.647240 -52.063854 -7.245022 1.299557 2.988899 69.920586 26.334934 19.542063 64.666336 -9.464908 14.541360 -8.534408 -12.637552 60.540871 -20.859095 7.421762 9.267378 49.832844 -3.819887 -7.177374 -33.402397 10.266452 4.690044 -21.417727 -9.391339 -0.517996 64.693108 2.187792 8.502739 -14.224051 -9.269279 0.899630 
34.939617 50.810177 -112.265121 14.268343 7.177400 -48.944828 29.725039 -2.467764 0.244216 -25.705570 7.487200 0.401267 -14.094139 -2.430136 4.483074 31.445795 8.378846 11.010855 6.655530 -7.385053 2.814211 -66.861252 -39.392502 13.363201 -53.360802 8.389848 9.533243 8.524705 12.647240 -51.800182 -7.245022 1.299557 2.988899 70.036217 26.275913 19.491951 64.793800 -9.463898 14.602963 -8.534408 -12.637552 60.423687 -21.358707 7.319571 9.104262 49.892208 -3.802462 -7.184330 -33.303783 10.301191 4.668869 -22.713432 -9.364706 -0.859379 65.843834 2.032536 8.601800 -14.787519 -9.800030 0.676148 
34.826042 50.826355 -111.856255 14.057771 6.979358 -49.443310 30.108341 -2.663998 0.556342 -25.635778 7.289919 0.515296 -13.981774 -2.514137 4.455652 31.373148 8.653378 11.022140 6.655530 -7.385053 2.814211 -66.522842 -39.741741 13.883482 -53.350060 8.386307 9.523746 8.524705 12.647240 -51.438850 -7.245022 1.299557 2.988899 70.337234 26.240067 19.312319 64.910637 -9.462185 14.653981 -8.534408 -12.637552 60.199081 -20.388151 6.903063 9.090875 49.744175 -3.829574 -7.174168 -32.290596 11.243284 4.757784 -23.004101 -9.305346 -0.396585 66.741852 1.943738 8.653069 -15.267406 -9.879532 0.568007 
34.750736 50.706249 -111.592072 14.078918 7.204467 -49.336601 30.189362 -2.924417 0.208388 -25.705221 7.413610 0.456690 -13.931511 -2.449889 4.442050 31.193007 8.638197 11.010201 6.655530 -7.385053 2.814211 -66.240479 -40.125900 14.155341 -53.393410 8.399220 9.542255 8.524705 12.647240 -51.224014 -7.245022 1.299557 2.988899 70.562881 26.259716 19.224638 64.984886 -9.461171 14.691508 -8.534408 -12.637552 59.935402 -20.196537 6.831181 9.922640 49.744434 -3.812301 -7.185917 -32.505383 11.305486 4.858267 -24.109787 -9.403790 -0.419609 67.882637 1.797498 8.732526 -16.176346 -10.061463 0.340201 
34.653030 50.698158 -111.258804 13.980387 7.322584 -49.278793 30.377897 -3.071871 -0.198350 -25.765022 7.562856 0.357590 -13.821432 -2.412062 4.537034 30.866049 8.579710 11.181569 6.655530 -7.385053 2.814211 -66.165520 -40.268860 14.049473 -53.656628 8.446853 9.658556 8.524705 12.647240 -51.429092 -7.245022 1.299557 2.988899 70.623283 26.254457 19.297186 65.028862 -9.464190 14.713826 -8.534408 -12.637552 59.769394 -19.689590 6.401951 9.993708 49.586803 -3.841339 -7.166330 -32.205513 11.471886 4.812446 -24.871649 -9.589328 -0.479303 68.749161 1.670661 8.811205 -16.966528 -10.203426 0.119198 
34.546299 50.713093 -110.899086 13.966001 7.452012 -49.242622 30.475437 -3.095977 -0.566975 -25.834517 7.663316 0.261222 -13.771748 -2.485221 4.658370 30.729406 8.619362 11.421538 6.655530 -7.385053 2.814211 -66.206276 -40.344322 13.735100 -53.929623 8.490017 9.767591 8.524705 12.647240 -51.702526 -7.245022 1.299557 2.988899 70.557198 26.113037 19.601871 65.156174 -9.461172 14.766015 -8.534408 -12.637552 59.818214 -19.310833 5.934652 9.765420 49.508511 -3.858486 -7.138216 -31.824350 11.456664 4.677305 -25.631176 -9.617997 -0.299089 69.578194 1.582103 8.852478 -17.656876 -10.306804 -0.051674 
34.438324 50.719315 -110.555252 14.097571 7.601095 -49.100510 30.500689 -3.086968 -0.817705 -25.864719 7.783769 0.177875 -13.935866 -2.607073 4.734749 30.884401 8.729383 11.561057 6.655530 -7.385053 2.814211 -66.187469 -40.600838 13.819829 -53.993511 8.502720 9.788003 8.524705 12.647240 -51.419323 -7.245022 1.299557 2.988899 70.474182 26.002522 19.900873 65.336189 -9.456912 14.854063 -8.534408 -12.637552 60.003765 -19.137854 5.672667 9.663106 49.400764 -3.858479 -7.129111 -31.771677 11.128547 4.495053 -26.495165 -9.469620 -0.098662 70.289070 1.475393 8.900433 -18.525545 -10.187232 -0.246156 
34.344662 50.672020 -110.260880 14.299603 7.724737 -48.827694 30.552614 -3.132375 -0.929461 -25.904003 7.752950 0.155773 -14.102695 -2.599020 4.648178 31.053421 8.887182 11.425411 6.655530 -7.385053 2.814211 -65.867805 -41.095570 14.294674 -53.951309 8.496179 9.776994 8.524705 12.647240 -51.263073 -7.245022 1.299557 2.988899 70.682327 25.954967 19.720266 65.420868 -9.454389 14.892800 -8.534408 -12.637552 60.120949 -18.986935 5.699526 9.890590 49.420685 -3.858505 -7.121129 -32.283920 10.851549 4.553884 -27.553778 -9.256307 0.039285 71.039360 1.396964 8.949800 -19.530527 -9.804586 -0.351501 
